<svg width="193" height="79" viewBox="0 0 193 79" fill="none" xmlns="http://www.w3.org/2000/svg">
<path d="M34.2458 43.2959C30.9827 41.3581 30.9833 36.6342 34.2468 34.6972L73.4205 11.4461C76.7537 9.46768 80.973 11.8702 80.9725 15.7464L80.9666 62.258C80.9661 66.1341 76.7462 68.5356 73.4135 66.5564L34.2458 43.2959Z" fill="#F5C106"/>
<path d="M43.9129 43.433C40.4807 41.5636 40.4206 36.6577 43.806 34.7088L68.761 20.3433C72.0708 18.4379 76.2104 20.7989 76.2571 24.6186L76.6019 52.7638C76.6486 56.5836 72.5681 59.0403 69.2126 57.2127L43.9129 43.433Z" fill="black"/>
<path d="M67.1812 35.0389C70.3731 37.0017 70.3516 41.6482 67.1416 43.5813L26.1447 68.2707C22.8033 70.2829 18.5472 67.8647 18.5653 63.9642L18.7959 14.2065C18.814 10.3061 23.0924 7.9274 26.415 9.97054L67.1812 35.0389Z" fill="#BA26FF"/>
<path d="M56.6925 34.1239C60.2052 35.9964 60.2278 41.023 56.7322 42.9271L29.767 57.6148C26.4439 59.4249 22.3924 57.0305 22.3753 53.2465L22.244 24.1146C22.227 20.3306 26.2567 17.8998 29.596 19.6798L56.6925 34.1239Z" fill="black"/>
<path d="M110.169 46.68H99.0491L97.2091 52H91.3291L101.369 24.04H107.889L117.929 52H112.009L110.169 46.68ZM108.649 42.2L104.609 30.52L100.569 42.2H108.649ZM131.522 52.36C129.389 52.36 127.469 51.8933 125.762 50.96C124.055 50 122.709 48.6533 121.722 46.92C120.762 45.1867 120.282 43.1867 120.282 40.92C120.282 38.6533 120.775 36.6533 121.762 34.92C122.775 33.1867 124.149 31.8533 125.882 30.92C127.615 29.96 129.549 29.48 131.682 29.48C133.815 29.48 135.749 29.96 137.482 30.92C139.215 31.8533 140.575 33.1867 141.562 34.92C142.575 36.6533 143.082 38.6533 143.082 40.92C143.082 43.1867 142.562 45.1867 141.522 46.92C140.509 48.6533 139.122 50 137.362 50.96C135.629 51.8933 133.682 52.36 131.522 52.36ZM131.522 47.48C132.535 47.48 133.482 47.24 134.362 46.76C135.269 46.2533 135.989 45.5067 136.522 44.52C137.055 43.5333 137.322 42.3333 137.322 40.92C137.322 38.8133 136.762 37.2 135.642 36.08C134.549 34.9333 133.202 34.36 131.602 34.36C130.002 34.36 128.655 34.9333 127.562 36.08C126.495 37.2 125.962 38.8133 125.962 40.92C125.962 43.0267 126.482 44.6533 127.522 45.8C128.589 46.92 129.922 47.48 131.522 47.48ZM152.79 33.28C153.51 32.1067 154.443 31.1867 155.59 30.52C156.763 29.8533 158.096 29.52 159.59 29.52V35.4H158.11C156.35 35.4 155.016 35.8133 154.11 36.64C153.23 37.4667 152.79 38.9067 152.79 40.96V52H147.19V29.84H152.79V33.28ZM161.922 40.84C161.922 38.6 162.362 36.6133 163.242 34.88C164.148 33.1467 165.362 31.8133 166.882 30.88C168.428 29.9467 170.148 29.48 172.042 29.48C173.695 29.48 175.135 29.8133 176.362 30.48C177.615 31.1467 178.615 31.9867 179.362 33V29.84H185.002V52H179.362V48.76C178.642 49.8 177.642 50.6667 176.362 51.36C175.108 52.0267 173.655 52.36 172.002 52.36C170.135 52.36 168.428 51.88 166.882 50.92C165.362 49.96 164.148 48.6133 163.242 46.88C162.362 45.12 161.922 43.1067 161.922 40.84ZM179.362 40.92C179.362 39.56 179.095 38.4 178.562 37.44C178.028 36.4533 177.308 35.7067 176.402 35.2C175.495 34.6667 174.522 34.4 173.482 34.4C172.442 34.4 171.482 34.6533 170.602 35.16C169.722 35.6667 169.002 36.4133 168.442 37.4C167.908 38.36 167.642 39.5067 167.642 40.84C167.642 42.1733 167.908 43.3467 168.442 44.36C169.002 45.3467 169.722 46.1067 170.602 46.64C171.508 47.1733 172.468 47.44 173.482 47.44C174.522 47.44 175.495 47.1867 176.402 46.68C177.308 46.1467 178.028 45.4 178.562 44.44C179.095 43.4533 179.362 42.28 179.362 40.92Z" fill="white"/>
</svg>
