<svg xmlns="http://www.w3.org/2000/svg" width="59" height="44" viewBox="0 0 59 44" fill="none">
  <path d="M24.0861 26.2651C20.677 24.3555 20.6778 19.4488 24.0874 17.54L40.8808 8.13828C44.214 6.27223 48.3238 8.68169 48.3232 12.5016L48.3204 31.3084C48.3198 35.1284 44.2093 37.537 40.8767 35.6702L24.0861 26.2651Z" fill="#F5C106"/>
  <path d="M30.1022 26.3233C26.5253 24.4857 26.4592 19.3976 29.9874 17.4819L38.1782 13.0346C41.485 11.2391 45.5217 13.609 45.5706 17.3746L45.6837 26.088C45.7326 29.8536 41.7586 32.3116 38.4061 30.5893L30.1022 26.3233Z" fill="black"/>
  <path d="M36.759 17.7266C40.0973 19.6629 40.0736 24.4923 36.7163 26.3993L18.7734 36.5914C15.4307 38.4901 11.2868 36.0657 11.3057 32.2223L11.4066 11.6816C11.4255 7.83824 15.5931 5.45012 18.917 7.37801L36.759 17.7266Z" fill="#BA26FF"/>
  <path d="M29.9826 17.198C33.6374 19.0356 33.6623 24.2439 30.0252 26.1125L20.8189 30.8424C17.5007 32.5472 13.55 30.1473 13.5322 26.416L13.4874 17.0348C13.4695 13.3035 17.3971 10.8701 20.7315 12.5466L29.9826 17.198Z" fill="black"/>
</svg>