<svg xmlns="http://www.w3.org/2000/svg" width="21" height="23" viewBox="0 0 21 23" fill="none">
  <g clip-path="url(#clip0_15_1438)">
    <path d="M10.6737 16.6292C11.1301 16.6292 11.5679 16.8105 11.8907 17.1332C12.2134 17.456 12.3947 17.8938 12.3947 18.3502C12.3947 18.8067 12.2134 19.2444 11.8907 19.5672C11.5679 19.8899 11.1301 20.0713 10.6737 20.0713C10.2172 20.0713 9.77948 19.8899 9.45672 19.5672C9.13396 19.2444 8.95264 18.8067 8.95264 18.3502C8.95264 17.8938 9.13396 17.456 9.45672 17.1332C9.77948 16.8105 10.2172 16.6292 10.6737 16.6292ZM10.6737 10.6055C11.1301 10.6055 11.5679 10.7868 11.8907 11.1096C12.2134 11.4323 12.3947 11.8701 12.3947 12.3265C12.3947 12.783 12.2134 13.2207 11.8907 13.5435C11.5679 13.8663 11.1301 14.0476 10.6737 14.0476C10.2172 14.0476 9.77948 13.8663 9.45672 13.5435C9.13396 13.2207 8.95264 12.783 8.95264 12.3265C8.95264 11.8701 9.13396 11.4323 9.45672 11.1096C9.77948 10.7868 10.2172 10.6055 10.6737 10.6055ZM10.6737 4.58179C11.1301 4.58179 11.5679 4.76311 11.8907 5.08587C12.2134 5.40863 12.3947 5.84639 12.3947 6.30284C12.3947 6.75929 12.2134 7.19705 11.8907 7.51981C11.5679 7.84257 11.1301 8.02389 10.6737 8.02389C10.2172 8.02389 9.77948 7.84257 9.45672 7.51981C9.13396 7.19705 8.95264 6.75929 8.95264 6.30284C8.95264 5.84639 9.13396 5.40863 9.45672 5.08587C9.77948 4.76311 10.2172 4.58179 10.6737 4.58179Z" fill="#CDCDE0"/>
  </g>
  <defs>
    <clipPath id="clip0_15_1438">
      <rect width="21" height="23" fill="white"/>
    </clipPath>
  </defs>
</svg>