<svg xmlns="http://www.w3.org/2000/svg" width="25" height="24" viewBox="0 0 25 24" fill="none">
  <path fill-rule="evenodd" clip-rule="evenodd" d="M12.6667 22C18.1895 22 22.6667 17.5228 22.6667 12C22.6667 6.47715 18.1895 2 12.6667 2C7.14384 2 2.66669 6.47715 2.66669 12C2.66669 17.5228 7.14384 22 12.6667 22ZM13.4167 9C13.4167 8.58579 13.0809 8.25 12.6667 8.25C12.2525 8.25 11.9167 8.58579 11.9167 9L11.9167 11.25H9.66669C9.25247 11.25 8.91669 11.5858 8.91669 12C8.91669 12.4142 9.25247 12.75 9.66669 12.75H11.9167V15C11.9167 15.4142 12.2525 15.75 12.6667 15.75C13.0809 15.75 13.4167 15.4142 13.4167 15L13.4167 12.75H15.6667C16.0809 12.75 16.4167 12.4142 16.4167 12C16.4167 11.5858 16.0809 11.25 15.6667 11.25H13.4167V9Z" fill="#CDCDE0"/>
</svg>