<svg xmlns="http://www.w3.org/2000/svg" width="20" height="20" viewBox="0 0 20 20" fill="none">
  <path d="M8.33332 2.08337C9.4983 2.08333 10.6401 2.40889 11.6299 3.02331C12.6197 3.63773 13.418 4.51656 13.9349 5.56063C14.4517 6.60469 14.6664 7.77242 14.5548 8.93205C14.4432 10.0917 14.0098 11.197 13.3033 12.1234L17.2558 16.0775C17.4053 16.2275 17.492 16.4287 17.4985 16.6404C17.505 16.852 17.4306 17.0581 17.2906 17.2169C17.1506 17.3757 16.9554 17.4753 16.7446 17.4954C16.5338 17.5155 16.3233 17.4546 16.1558 17.325L16.0775 17.2559L12.1233 13.3034C11.3342 13.9051 10.413 14.3103 9.43619 14.4854C8.45934 14.6604 7.45484 14.6004 6.50582 14.3101C5.5568 14.0199 4.69053 13.5078 3.9787 12.8163C3.26687 12.1248 2.72994 11.2738 2.41234 10.3335C2.09475 9.39331 2.00561 8.39097 2.15232 7.40947C2.29902 6.42796 2.67734 5.49549 3.25598 4.68923C3.83462 3.88297 4.59694 3.22609 5.47986 2.77295C6.36277 2.3198 7.34091 2.08343 8.33332 2.08337ZM8.33332 3.75004C7.11774 3.75004 5.95196 4.23293 5.09241 5.09247C4.23287 5.95201 3.74999 7.1178 3.74999 8.33337C3.74999 9.54895 4.23287 10.7147 5.09241 11.5743C5.95196 12.4338 7.11774 12.9167 8.33332 12.9167C9.5489 12.9167 10.7147 12.4338 11.5742 11.5743C12.4338 10.7147 12.9167 9.54895 12.9167 8.33337C12.9167 7.1178 12.4338 5.95201 11.5742 5.09247C10.7147 4.23293 9.5489 3.75004 8.33332 3.75004Z" fill="white"/>
</svg>