<svg xmlns="http://www.w3.org/2000/svg" width="25" height="25" viewBox="0 0 25 25" fill="none">
  <path opacity="0.5" d="M22.5 16.5V15.5C22.5 12.671 22.5 11.258 21.621 10.379C20.742 9.5 19.328 9.5 16.5 9.5H8.5C5.67 9.5 4.257 9.5 3.378 10.38C2.5 11.257 2.5 12.67 2.5 15.498V16.5C2.5 19.328 2.5 20.742 3.379 21.621C4.257 22.5 5.672 22.5 8.5 22.5H16.5C19.328 22.5 20.743 22.5 21.621 21.621C22.5 20.742 22.5 19.328 22.5 16.5Z" fill="#FFA101"/>
  <path fill-rule="evenodd" clip-rule="evenodd" d="M12.5 16.2501C12.6989 16.2501 12.8897 16.1711 13.0303 16.0304C13.171 15.8897 13.25 15.699 13.25 15.5001V4.52707L14.93 6.48807C15.0594 6.63924 15.2436 6.73281 15.442 6.74819C15.6404 6.76357 15.8368 6.69949 15.988 6.57007C16.1392 6.44064 16.2327 6.25647 16.2481 6.05805C16.2635 5.85964 16.1994 5.66324 16.07 5.51207L13.07 2.01207C12.9996 1.92973 12.9122 1.86363 12.8138 1.81831C12.7154 1.77298 12.6083 1.74951 12.5 1.74951C12.3917 1.74951 12.2846 1.77298 12.1862 1.81831C12.0878 1.86363 12.0004 1.92973 11.93 2.01207L8.93 5.51207C8.86591 5.58692 8.8172 5.67367 8.78664 5.76735C8.75607 5.86103 8.74426 5.95981 8.75188 6.05805C8.75949 6.1563 8.78638 6.25208 8.83101 6.33993C8.87565 6.42778 8.93714 6.50598 9.012 6.57007C9.08685 6.63415 9.17359 6.68287 9.26727 6.71343C9.36095 6.74399 9.45973 6.7558 9.55798 6.74819C9.65622 6.74057 9.75201 6.71368 9.83986 6.66905C9.92771 6.62442 10.0059 6.56292 10.07 6.48807L11.75 4.52807V15.5001C11.75 15.9141 12.086 16.2501 12.5 16.2501Z" fill="#FFA101"/>
</svg>